Coordinates
version=1
nRows=49
nColumns=12
inDegrees=yes

Units are S.I. units (second, meters, Newtons, ...)
Angles are in degrees

endheader
time	SC_y	SC_z	SC_x	AC_y	AC_z	AC_x	GH_y	GH_z	GH_yy	EL_x	PS_y
       0.0              -24.08          13.01           13.6          48.89          7.957          11.29         -114.8          47.04         -30.61          49.07          100.8
    0.0117              -24.08          13.01          13.61          48.89          7.956          11.29         -114.7          47.03         -30.61          49.07          100.8
   0.02341              -24.09          13.02          13.61          48.89          7.956          11.29         -114.7          47.02          -30.6          49.06          100.7
   0.03511              -24.09          13.02          13.61          48.89          7.955          11.29         -114.7          47.01         -30.58          49.06          100.7
   0.04682              -24.09          13.02          13.61          48.89          7.954           11.3         -114.7           47.0         -30.57          49.05          100.7
   0.05852               -24.1          13.02          13.61          48.89          7.954           11.3         -114.7          46.99         -30.56          49.04          100.7
   0.07023               -24.1          13.02          13.61          48.89          7.953           11.3         -114.7          46.97         -30.55          49.03          100.7
   0.08193              -24.11          13.02          13.61           48.9          7.952           11.3         -114.7          46.96         -30.54          49.02          100.7
   0.09363              -24.11          13.03          13.61           48.9          7.951           11.3         -114.7          46.95         -30.52          49.02          100.7
    0.1053              -24.12          13.03          13.61           48.9           7.95           11.3         -114.6          46.93          -30.5          49.01          100.7
     0.117              -24.12          13.03          13.61           48.9          7.949           11.3         -114.6          46.91         -30.49          48.99          100.7
    0.1287              -24.13          13.03          13.61           48.9          7.948           11.3         -114.6           46.9         -30.47          48.98          100.7
    0.1405              -24.14          13.03          13.61           48.9          7.947           11.3         -114.6          46.88         -30.45          48.97          100.7
    0.1522              -24.14          13.04          13.61           48.9          7.946           11.3         -114.6          46.86         -30.43          48.96          100.6
    0.1639              -24.15          13.04          13.61          48.91          7.945           11.3         -114.6          46.83         -30.41          48.94          100.6
    0.1756              -24.16          13.04          13.61          48.91          7.943           11.3         -114.5          46.81         -30.38          48.93          100.6
    0.1873              -24.17          13.05          13.62          48.91          7.942           11.3         -114.5          46.78         -30.36          48.91          100.6
     0.199              -24.18          13.05          13.62          48.91           7.94           11.3         -114.5          46.75         -30.33          48.89          100.6
    0.2107              -24.19          13.05          13.62          48.91          7.938          11.31         -114.4          46.72         -30.29          48.87          100.6
    0.2224               -24.2          13.06          13.62          48.92          7.936          11.31         -114.4          46.69         -30.26          48.85          100.5
    0.2341              -24.22          13.06          13.62          48.92          7.934          11.31         -114.4          46.65         -30.22          48.83          100.5
    0.2458              -24.23          13.07          13.62          48.92          7.932          11.31         -114.3          46.61         -30.18           48.8          100.5
    0.2575              -24.25          13.08          13.63          48.93          7.929          11.31         -114.3          46.56         -30.13          48.77          100.5
    0.2692              -24.26          13.08          13.63          48.93          7.926          11.31         -114.2          46.51         -30.08          48.74          100.4
    0.2809              -24.28          13.09          13.63          48.93          7.923          11.32         -114.2          46.45         -30.02           48.7          100.4
    0.2926              -24.31           13.1          13.63          48.94          7.919          11.32         -114.1          46.39         -29.96          48.66          100.3
    0.3043              -24.33          13.11          13.64          48.94          7.915          11.32         -114.1          46.31         -29.89          48.61          100.3
     0.316              -24.36          13.12          13.64          48.95           7.91          11.32         -114.0          46.23         -29.81          48.56          100.2
    0.3277              -24.39          13.13          13.64          48.96          7.905          11.33         -113.9          46.14         -29.71           48.5          100.2
    0.3394              -24.43          13.14          13.65          48.96          7.899          11.33         -113.8          46.04         -29.61          48.44          100.1
    0.3511              -24.47          13.16          13.65          48.97          7.892          11.34         -113.7          45.92         -29.49          48.36          100.0
    0.3628              -24.51          13.17          13.66          48.98          7.884          11.34         -113.5          45.79         -29.36          48.28          99.96
    0.3745              -24.57          13.19          13.67           49.0          7.875          11.35         -113.4          45.63          -29.2          48.18          99.86
    0.3862              -24.63          13.22          13.67          49.01          7.865          11.35         -113.2          45.45         -29.02          48.06          99.75
    0.3979              -24.71          13.24          13.68          49.02          7.853          11.36         -113.0          45.24          -28.8          47.93          99.61
    0.4097              -24.79          13.28          13.69          49.04          7.838          11.37         -112.8          44.99         -28.55          47.77          99.45
    0.4214               -24.9          13.32          13.71          49.07          7.821          11.38         -112.5          44.69         -28.25          47.58          99.26
    0.4331              -25.02          13.36          13.72          49.09            7.8          11.39         -112.1          44.33         -27.89          47.35          99.03
    0.4448              -25.17          13.42          13.74          49.12          7.776          11.41         -111.7           43.9         -27.46          47.08          98.76
    0.4565              -25.35          13.48          13.76          49.16          7.745          11.43         -111.2          43.37         -26.93          46.74          98.42
    0.4682              -25.58          13.57          13.79          49.21          7.708          11.45         -110.6          42.72         -26.28          46.33          98.01
    0.4799              -25.86          13.67          13.83          49.27          7.661          11.48         -109.8          41.91         -25.46          45.81          97.49
    0.4916              -26.21           13.8          13.87          49.35          7.602          11.52         -108.8          40.89         -24.44          45.16          96.84
    0.5033              -26.67          13.97          13.93          49.45          7.527          11.57         -107.5          39.59         -23.13          44.34          96.01
     0.515              -27.24          14.18           14.0          49.57          7.431          11.63         -105.9          37.93         -21.46          43.28          94.95
    0.5267              -27.98          14.45          14.09          49.73          7.308          11.71         -103.8          35.79         -19.32          41.92          93.59
    0.5384              -28.93           14.8          14.21          49.93          7.151          11.81         -101.2          33.07         -16.58          40.19          91.85
    0.5501              -30.12          15.24          14.36          50.19          6.953          11.94         -97.82          29.64         -13.14          38.01          89.67
    0.5618              -31.57          15.78          14.54           50.5          6.712          12.09         -93.75          25.46         -8.945          35.35          87.01
